<svg xmlns="http://www.w3.org/2000/svg" width="512" height="512" viewBox="0 0 512 512">
  <path d="M 211 3 L 166 15 L 121 39 L 91 66 L 66 101 L 44 154 L 33 211 L 31 275 L 40 342 L 53 383 L 72 420 L 106 460 L 133 480 L 166 496 L 211 508 L 284 511 L 315 507 L 348 498 L 383 481 L 407 463 L 425 445 L 440 424 L 450 403 L 458 370 L 455 322 L 441 288 L 415 258 L 374 233 L 369 199 L 357 169 L 344 151 L 323 134 L 288 121 L 247 119 L 225 123 L 197 135 L 172 156 L 165 168 L 201 192 L 219 175 L 236 167 L 251 164 L 282 166 L 299 173 L 311 183 L 322 201 L 327 219 L 300 217 L 244 219 L 208 230 L 184 246 L 169 264 L 158 295 L 161 331 L 176 358 L 199 377 L 231 389 L 271 391 L 302 384 L 330 368 L 350 346 L 363 320 L 373 284 L 393 300 L 407 321 L 413 343 L 413 365 L 407 388 L 392 413 L 365 438 L 333 455 L 290 465 L 241 466 L 207 461 L 172 449 L 139 428 L 115 402 L 96 368 L 84 331 L 77 286 L 77 225 L 86 172 L 100 134 L 118 105 L 139 83 L 174 61 L 223 47 L 279 45 L 308 49 L 339 58 L 378 80 L 400 101 L 414 120 L 427 145 L 436 173 L 478 162 L 480 159 L 468 125 L 446 86 L 420 56 L 385 30 L 348 13 L 301 2 L 236 0 Z M 328 268 L 328 272 L 327 273 L 327 279 L 326 280 L 326 285 L 325 286 L 325 289 L 324 290 L 324 293 L 323 294 L 323 297 L 322 298 L 322 300 L 321 301 L 321 303 L 320 304 L 320 305 L 319 306 L 319 308 L 318 309 L 318 310 L 317 311 L 317 312 L 316 313 L 316 314 L 315 315 L 315 316 L 313 318 L 313 319 L 311 321 L 311 322 L 308 325 L 308 326 L 302 332 L 301 332 L 298 335 L 297 335 L 295 337 L 294 337 L 293 338 L 292 338 L 291 339 L 290 339 L 289 340 L 288 340 L 287 341 L 286 341 L 285 342 L 283 342 L 282 343 L 279 343 L 278 344 L 275 344 L 274 345 L 268 345 L 267 346 L 249 346 L 248 345 L 242 345 L 241 344 L 238 344 L 237 343 L 235 343 L 234 342 L 232 342 L 231 341 L 229 341 L 228 340 L 227 340 L 226 339 L 225 339 L 224 338 L 223 338 L 222 337 L 221 337 L 218 334 L 217 334 L 209 326 L 209 325 L 207 323 L 207 322 L 206 321 L 206 320 L 205 319 L 205 317 L 204 316 L 204 313 L 203 312 L 203 300 L 204 299 L 204 296 L 205 295 L 205 294 L 206 293 L 206 292 L 207 291 L 207 290 L 208 289 L 208 288 L 211 285 L 211 284 L 217 278 L 218 278 L 221 275 L 222 275 L 223 274 L 224 274 L 226 272 L 227 272 L 228 271 L 229 271 L 230 270 L 232 270 L 233 269 L 234 269 L 235 268 L 237 268 L 238 267 L 240 267 L 241 266 L 244 266 L 245 265 L 249 265 L 250 264 L 255 264 L 256 263 L 265 263 L 266 262 L 295 262 L 296 263 L 307 263 L 308 264 L 315 264 L 316 265 L 321 265 L 322 266 L 326 266 Z" fill="#000" fill-rule="evenodd"/>
</svg>
